<svg width="35" height="35" viewBox="0 0 35 35" fill="none" xmlns="http://www.w3.org/2000/svg">
<path d="M18.7812 10.6667C18.7812 9.95905 18.2076 9.38542 17.5 9.38542C16.7924 9.38542 16.2188 9.95905 16.2188 10.6667H18.7812ZM16.2188 24.3333C16.2188 25.0409 16.7924 25.6146 17.5 25.6146C18.2076 25.6146 18.7812 25.0409 18.7812 24.3333H16.2188ZM10.6667 16.2188C9.95905 16.2188 9.38542 16.7924 9.38542 17.5C9.38542 18.2076 9.95905 18.7812 10.6667 18.7812V16.2188ZM24.3333 18.7812C25.0409 18.7812 25.6146 18.2076 25.6146 17.5C25.6146 16.7924 25.0409 16.2188 24.3333 16.2188V18.7812ZM16.2188 10.6667V24.3333H18.7812V10.6667H16.2188ZM10.6667 18.7812H24.3333V16.2188H10.6667V18.7812ZM31.5938 17.5C31.5938 25.2838 25.2838 31.5938 17.5 31.5938V34.1562C26.699 34.1562 34.1562 26.699 34.1562 17.5H31.5938ZM17.5 31.5938C9.71624 31.5938 3.40625 25.2838 3.40625 17.5H0.84375C0.84375 26.699 8.30101 34.1562 17.5 34.1562V31.5938ZM3.40625 17.5C3.40625 9.71624 9.71624 3.40625 17.5 3.40625V0.84375C8.30101 0.84375 0.84375 8.30101 0.84375 17.5H3.40625ZM17.5 3.40625C25.2838 3.40625 31.5938 9.71624 31.5938 17.5H34.1562C34.1562 8.30101 26.699 0.84375 17.5 0.84375V3.40625Z" fill="#54605F"/>
</svg>
