<svg width="30" height="28" viewBox="0 0 30 28" fill="none" xmlns="http://www.w3.org/2000/svg">
<path d="M28.7866 4.05018L29.7181 4.36071C29.818 4.06126 29.7677 3.73208 29.5832 3.47602C29.3986 3.21995 29.1022 3.06821 28.7866 3.06821V4.05018ZM24.5314 16.8158V17.7978C24.954 17.7978 25.3293 17.5273 25.4629 17.1263L24.5314 16.8158ZM8.04575 19.8532L9.01786 19.7143L9.01786 19.7143L8.04575 19.8532ZM5.38292 1.21338L6.35502 1.07451C6.28591 0.59074 5.8716 0.231408 5.38292 0.231408V1.21338ZM1.83691 0.231408C1.29459 0.231408 0.854943 0.671051 0.854943 1.21338C0.854943 1.75571 1.29459 2.19535 1.83691 2.19535V0.231408ZM24.9678 23.9078C24.9678 24.9322 24.1374 25.7627 23.113 25.7627V27.7266C25.222 27.7266 26.9317 26.0169 26.9317 23.9078H24.9678ZM23.113 25.7627C22.0886 25.7627 21.2581 24.9322 21.2581 23.9078H19.2942C19.2942 26.0169 21.0039 27.7266 23.113 27.7266V25.7627ZM21.2581 23.9078C21.2581 22.8834 22.0886 22.053 23.113 22.053V20.089C21.0039 20.089 19.2942 21.7988 19.2942 23.9078H21.2581ZM23.113 22.053C24.1374 22.053 24.9678 22.8834 24.9678 23.9078H26.9317C26.9317 21.7988 25.222 20.089 23.113 20.089V22.053ZM13.6206 23.9078C13.6206 24.9322 12.7901 25.7627 11.7657 25.7627V27.7266C13.8748 27.7266 15.5845 26.0169 15.5845 23.9078H13.6206ZM11.7657 25.7627C10.7413 25.7627 9.9109 24.9322 9.9109 23.9078H7.94696C7.94696 26.0169 9.65668 27.7266 11.7657 27.7266V25.7627ZM9.9109 23.9078C9.9109 22.8834 10.7413 22.053 11.7657 22.053V20.089C9.65668 20.089 7.94696 21.7988 7.94696 23.9078H9.9109ZM11.7657 22.053C12.7901 22.053 13.6206 22.8834 13.6206 23.9078H15.5845C15.5845 21.7988 13.8748 20.089 11.7657 20.089V22.053ZM6.09212 5.03216H28.7866V3.06821H6.09212V5.03216ZM27.855 3.73966L23.5998 16.5053L25.4629 17.1263L29.7181 4.36071L27.855 3.73966ZM24.5314 15.8338H8.21973V17.7978H24.5314V15.8338ZM23.113 20.089H9.4499V22.053H23.113V20.089ZM5.38292 0.231408H1.83691V2.19535H5.38292V0.231408ZM9.4499 20.089C9.23271 20.089 9.04857 19.9293 9.01786 19.7143L7.07365 19.9921C7.24259 21.1746 8.25535 22.053 9.4499 22.053V20.089ZM6.76028 3.91131L6.35502 1.07451L4.41082 1.35225L4.81608 4.18906L6.76028 3.91131ZM6.09212 3.06821H5.78818V5.03216H6.09212V3.06821ZM9.01786 19.7143L8.58394 16.6769L6.63974 16.9547L7.07365 19.9921L9.01786 19.7143ZM8.58394 16.6769L6.76028 3.91131L4.81608 4.18906L6.63974 16.9547L8.58394 16.6769ZM8.21973 15.8338H7.61184V17.7978H8.21973V15.8338Z" fill="#54605F"/>
</svg>
