<svg width="26" height="26" viewBox="0 0 26 26" fill="none" xmlns="http://www.w3.org/2000/svg">
<path d="M24.923 2.75644C25.3867 2.29269 25.3867 1.54081 24.923 1.07706C24.4593 0.613311 23.7074 0.613311 23.2436 1.07706L24.923 2.75644ZM1.07694 23.2437C0.613189 23.7075 0.613189 24.4594 1.07694 24.9231C1.54068 25.3869 2.29257 25.3869 2.75632 24.9231L1.07694 23.2437ZM2.75634 1.07706C2.29259 0.613311 1.54071 0.613311 1.07696 1.07706C0.613211 1.54081 0.613211 2.29269 1.07696 2.75644L2.75634 1.07706ZM23.2436 24.9231C23.7074 25.3869 24.4593 25.3869 24.923 24.9231C25.3868 24.4594 25.3868 23.7075 24.923 23.2437L23.2436 24.9231ZM23.2436 1.07706L1.07694 23.2437L2.75632 24.9231L24.923 2.75644L23.2436 1.07706ZM1.07696 2.75644L23.2436 24.9231L24.923 23.2437L2.75634 1.07706L1.07696 2.75644Z" fill="#54605F"/>
</svg>
