<svg width="51" height="25" viewBox="0 0 51 25" fill="none" xmlns="http://www.w3.org/2000/svg">
<path d="M16.5066 9.15425L17.9301 9.4593C18.6532 9.4593 19.0148 8.93958 19.0148 7.90015C19.0148 6.83813 18.3369 5.70831 16.9811 4.51071C15.6479 3.31311 13.9532 2.71431 11.8969 2.71431C9.32096 2.71431 7.2986 3.52777 5.82984 5.1547C4.36108 6.75904 3.6267 8.95088 3.6267 11.7302C3.6267 14.487 4.44017 16.8709 6.0671 18.8819C7.69403 20.893 9.77289 21.8985 12.3037 21.8985C14.8345 21.8985 17.0941 20.7009 19.0826 18.3057C19.5119 17.7634 19.8395 17.4923 20.0655 17.4923C20.2915 17.4923 20.4609 17.5714 20.5739 17.7295C20.7095 17.8651 20.7773 18.0798 20.7773 18.3735C20.7773 18.6673 20.54 19.1418 20.0655 19.7971C19.6136 20.4298 18.9922 21.0851 18.2013 21.763C17.433 22.4183 16.4162 22.9945 15.1508 23.4916C13.908 23.9661 12.6087 24.2034 11.2529 24.2034C8.27024 24.2034 5.78465 23.1413 3.79617 21.0173C1.8303 18.8932 0.84736 16.1591 0.84736 12.8148C0.84736 9.448 1.97717 6.54438 4.2368 4.10398C6.51903 1.64098 9.35486 0.409487 12.7443 0.409487C15.1169 0.409487 17.0602 1.03088 18.5741 2.27368C20.1107 3.49388 20.879 5.04172 20.879 6.91722C20.879 8.40857 20.4157 9.65136 19.4893 10.6456C18.5854 11.6172 17.6251 12.1031 16.6083 12.1031C16.066 12.1031 15.6592 11.9562 15.3881 11.6624C15.1395 11.3687 15.0152 11.0297 15.0152 10.6456C15.0152 10.2615 15.1621 9.92252 15.4559 9.62877C15.7722 9.31242 16.1224 9.15425 16.5066 9.15425ZM48.0369 7.45953C48.0369 4.65759 47.0313 3.25662 45.0203 3.25662C44.1164 3.25662 43.3255 3.49388 42.6476 3.9684C41.9924 4.42033 41.6647 5.06432 41.6647 5.90038C41.6647 6.4201 41.8003 6.78164 42.0714 6.985C42.3426 7.16577 42.7945 7.33525 43.4272 7.49342C44.0599 7.65159 44.5118 7.83236 44.783 8.03573C45.0541 8.2391 45.1897 8.60064 45.1897 9.12035C45.1897 9.61747 45.0203 10.0129 44.6813 10.3067C44.3424 10.5778 43.9243 10.7134 43.4272 10.7134C42.546 10.7134 41.7212 10.3067 40.9529 9.49319C40.1847 8.65713 39.8005 7.57251 39.8005 6.23933C39.8005 4.88355 40.3541 3.57297 41.4613 2.30757C42.5686 1.04218 43.9808 0.409487 45.6981 0.409487C47.4155 0.409487 48.7034 0.929202 49.5621 1.96863C50.4208 3.00806 50.8501 4.38643 50.8501 6.10375C50.8501 8.8153 49.8785 12.0127 47.9352 15.6959C45.9919 19.3791 44.0599 22.0341 42.1392 23.6611C41.7325 24.0226 41.3258 24.2034 40.919 24.2034C40.1959 24.2034 39.6536 23.7627 39.2921 22.8815C39.2243 22.7459 39.1226 22.4748 38.987 22.068C38.4673 20.4863 38.0154 19.1644 37.6313 18.1024C36.0721 20.6332 34.5921 22.486 33.1911 23.6611C32.7844 24.0226 32.3776 24.2034 31.9709 24.2034C31.2252 24.2034 30.6829 23.7627 30.344 22.8815C30.2988 22.7459 30.0841 22.1245 29.7 21.0173C29.3158 19.9101 28.8526 18.5769 28.3103 17.0178C27.768 15.436 27.2935 14.0802 26.8867 12.9504C26.48 11.8206 26.0507 10.6569 25.5988 9.4593C25.1468 8.2391 24.7966 7.31265 24.548 6.67995C24.3221 6.04726 24.0961 5.40326 23.8701 4.74797C23.4634 3.59556 23.26 2.7595 23.26 2.23979C23.26 1.72007 23.3843 1.29074 23.6329 0.951799C23.8814 0.590258 24.2317 0.409487 24.6836 0.409487C25.5197 0.409487 26.1072 0.872711 26.4461 1.79916C26.5139 1.95733 26.6721 2.48835 26.9206 3.3922C28.2312 7.82107 30.2084 13.7413 32.8522 21.1529C34.3435 19.5711 35.6541 17.7182 36.7839 15.5942C36.5579 15.0293 36.219 14.1141 35.7671 12.8487C35.3378 11.5607 34.8858 10.2841 34.4113 9.01867C33.9594 7.73068 33.6091 6.78164 33.3606 6.17154C33.1346 5.53884 32.9199 4.92874 32.7166 4.34124C32.3776 3.3922 32.2082 2.66911 32.2082 2.172C32.2082 1.67488 32.3324 1.25685 32.581 0.917903C32.8296 0.578959 33.1798 0.409487 33.6317 0.409487C34.4678 0.409487 35.0553 0.872711 35.3942 1.79916C35.462 1.95733 35.6202 2.48835 35.8688 3.3922C37.1793 7.82107 39.1565 13.7413 41.8003 21.1529C43.382 19.4807 44.8169 17.4019 46.1049 14.9163C47.3929 12.4081 48.0369 9.92252 48.0369 7.45953Z" fill="#54605F"/>
</svg>
