<svg width="248" height="248" viewBox="0 0 248 248" fill="none" xmlns="http://www.w3.org/2000/svg">
<path fill-rule="evenodd" clip-rule="evenodd" d="M45.594 99.6665C40.9043 96.4283 35.2169 94.5318 29.0866 94.5318C13.0225 94.5318 -2.82561e-07 107.554 -1.82029e-07 123.618C-8.14972e-08 139.683 13.0225 152.705 29.0866 152.705C35.2159 152.705 40.9023 150.809 45.5915 147.572C65.1189 136.888 105.439 127.012 105.439 127.012L105.439 120.225C105.439 120.225 65.1223 110.351 45.594 99.6665Z" fill="#E19EAC"/>
<path fill-rule="evenodd" clip-rule="evenodd" d="M85.3828 51.5098C84.3564 45.9041 81.6758 40.5417 77.3412 36.2071C65.9822 24.848 47.5655 24.848 36.2065 36.2071C24.8475 47.5661 24.8475 65.9827 36.2065 77.3418C40.5406 81.6758 45.9021 84.3562 51.5071 85.383C72.8701 91.6359 108.364 113.163 108.364 113.163L113.163 108.364C113.163 108.364 91.6365 72.873 85.3828 51.5098Z" fill="#E19EAC"/>
<path fill-rule="evenodd" clip-rule="evenodd" d="M147.57 45.5941C150.808 40.9043 152.705 35.2169 152.705 29.0866C152.705 13.0225 139.682 -2.82561e-07 123.618 -1.82029e-07C107.554 -8.14972e-08 94.5315 13.0225 94.5315 29.0866C94.5315 35.2158 96.4273 40.9022 99.6645 45.5915C110.349 65.1188 120.225 105.439 120.225 105.439L127.011 105.439C127.011 105.439 136.886 65.1224 147.57 45.5941Z" fill="#E19EAC"/>
<path fill-rule="evenodd" clip-rule="evenodd" d="M195.727 85.383C201.333 84.3566 206.695 81.6761 211.03 77.3415C222.389 65.9824 222.389 47.5658 211.03 36.2068C199.671 24.8477 181.254 24.8477 169.895 36.2068C165.561 40.5408 162.881 45.9024 161.854 51.5073C155.601 72.8703 134.074 108.364 134.074 108.364L138.873 113.163C138.873 113.163 174.364 91.6367 195.727 85.383Z" fill="#E19EAC"/>
<path fill-rule="evenodd" clip-rule="evenodd" d="M201.645 147.571C206.334 150.809 212.022 152.705 218.152 152.705C234.216 152.705 247.238 139.682 247.238 123.618C247.238 107.554 234.216 94.5317 218.152 94.5317C212.022 94.5317 206.335 96.4277 201.646 99.6652C182.118 110.35 141.799 120.225 141.799 120.225L141.799 127.012C141.799 127.012 182.117 136.887 201.645 147.571Z" fill="#E19EAC"/>
<path fill-rule="evenodd" clip-rule="evenodd" d="M161.855 195.726C162.881 201.332 165.562 206.695 169.897 211.03C181.256 222.389 199.672 222.389 211.031 211.03C222.39 199.67 222.39 181.254 211.031 169.895C206.697 165.561 201.336 162.88 195.731 161.854C174.368 155.601 138.874 134.073 138.874 134.073L134.075 138.872C134.075 138.872 155.601 174.362 161.855 195.726Z" fill="#E19EAC"/>
<path fill-rule="evenodd" clip-rule="evenodd" d="M99.668 201.642C96.4298 206.332 94.5333 212.019 94.5333 218.15C94.5333 234.214 107.556 247.236 123.62 247.236C139.684 247.236 152.707 234.214 152.707 218.15C152.707 212.021 150.811 206.334 147.574 201.645C136.889 182.117 127.014 141.797 127.014 141.797L120.227 141.797C120.227 141.797 110.352 182.114 99.668 201.642Z" fill="#E19EAC"/>
<path fill-rule="evenodd" clip-rule="evenodd" d="M51.5102 161.853C45.9041 162.879 40.5413 165.56 36.2063 169.895C24.8473 181.254 24.8473 199.671 36.2063 211.03C47.5654 222.389 65.982 222.389 77.341 211.03C81.675 206.696 84.3554 201.334 85.3822 195.729C91.6351 174.366 113.163 138.873 113.163 138.873L108.364 134.074C108.364 134.074 72.8736 155.599 51.5102 161.853Z" fill="#E19EAC"/>
<path d="M125.93 146.658C125.695 149.494 121.545 149.494 121.309 146.658C121.117 144.336 118.004 143.717 116.938 145.788C115.635 148.318 111.8 146.73 112.668 144.02C113.379 141.801 110.74 140.038 108.962 141.544C106.791 143.383 103.856 140.448 105.695 138.276C107.2 136.498 105.437 133.859 103.218 134.57C100.508 135.438 98.9198 131.603 101.45 130.301C103.521 129.234 102.902 126.121 100.58 125.929C97.7443 125.694 97.7443 121.543 100.58 121.308C102.902 121.115 103.521 118.002 101.45 116.936C98.9198 115.634 100.508 111.799 103.218 112.667C105.437 113.377 107.2 110.738 105.695 108.96C103.856 106.789 106.791 103.854 108.962 105.693C110.74 107.199 113.379 105.435 112.668 103.217C111.8 100.507 115.635 98.9182 116.938 101.448C118.004 103.52 121.117 102.9 121.309 100.579C121.545 97.7427 125.695 97.7427 125.93 100.579C126.123 102.9 129.236 103.52 130.302 101.448C131.605 98.9182 135.439 100.507 134.571 103.217C133.861 105.435 136.5 107.199 138.278 105.693C140.449 103.854 143.384 106.789 141.545 108.96C140.04 110.738 141.803 113.377 144.022 112.667C146.732 111.799 148.32 115.634 145.79 116.936C143.719 118.002 144.338 121.115 146.66 121.308C149.495 121.543 149.495 125.694 146.66 125.929C144.338 126.121 143.719 129.234 145.79 130.301C148.32 131.603 146.732 135.438 144.022 134.57C141.803 133.859 140.04 136.498 141.545 138.276C143.384 140.448 140.449 143.383 138.278 141.544C136.5 140.038 133.861 141.801 134.571 144.02C135.439 146.73 131.605 148.318 130.302 145.788C129.236 143.717 126.123 144.336 125.93 146.658Z" fill="#F1B6BF"/>
<path d="M96.6245 150.613L123.619 123.618" stroke="#E19EAC" stroke-width="1.81791"/>
<circle cx="96.6245" cy="150.613" r="5.45374" transform="rotate(-135 96.6245 150.613)" fill="#F1B6BF"/>
<path d="M88.3499 138.228L123.62 123.618" stroke="#E19EAC" stroke-width="1.81791"/>
<circle cx="88.349" cy="138.228" r="5.45374" transform="rotate(-112.5 88.349 138.228)" fill="#F1B6BF"/>
<path d="M85.4436 123.618L123.62 123.618" stroke="#E19EAC" stroke-width="1.81791"/>
<circle cx="85.4437" cy="123.618" r="5.45374" transform="rotate(-90 85.4437 123.618)" fill="#F1B6BF"/>
<path d="M88.3499 109.009L123.62 123.618" stroke="#E19EAC" stroke-width="1.81791"/>
<circle cx="88.3495" cy="109.009" r="5.45374" transform="rotate(-67.5 88.3495 109.009)" fill="#F1B6BF"/>
<path d="M96.6245 96.6238L123.619 123.618" stroke="#E19EAC" stroke-width="1.81791"/>
<circle cx="96.6254" cy="96.6238" r="5.45374" transform="rotate(-45 96.6254 96.6238)" fill="#F1B6BF"/>
<path d="M109.011 88.3479L123.62 123.618" stroke="#E19EAC" stroke-width="1.81791"/>
<circle cx="109.01" cy="88.348" r="5.45374" transform="rotate(-22.5 109.01 88.348)" fill="#F1B6BF"/>
<path d="M123.62 85.4419L123.62 123.618" stroke="#E19EAC" stroke-width="1.81791"/>
<circle cx="123.62" cy="85.442" r="5.45374" fill="#F1B6BF"/>
<path d="M138.229 88.3481L123.62 123.618" stroke="#E19EAC" stroke-width="1.81791"/>
<circle cx="138.228" cy="88.3481" r="5.45374" transform="rotate(22.5 138.228 88.3481)" fill="#F1B6BF"/>
<path d="M150.614 96.6238L123.619 123.618" stroke="#E19EAC" stroke-width="1.81791"/>
<circle cx="150.614" cy="96.6236" r="5.45374" transform="rotate(45 150.614 96.6236)" fill="#F1B6BF"/>
<path d="M158.888 109.009L123.618 123.618" stroke="#E19EAC" stroke-width="1.81791"/>
<circle cx="158.889" cy="109.009" r="5.45374" transform="rotate(67.5 158.889 109.009)" fill="#F1B6BF"/>
<path d="M161.796 123.618L123.62 123.618" stroke="#E19EAC" stroke-width="1.81791"/>
<circle cx="161.796" cy="123.618" r="5.45374" transform="rotate(90 161.796 123.618)" fill="#F1B6BF"/>
<path d="M158.888 138.228L123.618 123.618" stroke="#E19EAC" stroke-width="1.81791"/>
<circle cx="158.889" cy="138.228" r="5.45374" transform="rotate(112.5 158.889 138.228)" fill="#F1B6BF"/>
<path d="M150.614 150.613L123.619 123.618" stroke="#E19EAC" stroke-width="1.81791"/>
<circle cx="150.613" cy="150.613" r="5.45374" transform="rotate(135 150.613 150.613)" fill="#F1B6BF"/>
<path d="M138.227 158.888L123.618 123.618" stroke="#E19EAC" stroke-width="1.81791"/>
<circle cx="138.227" cy="158.889" r="5.45374" transform="rotate(157.5 138.227 158.889)" fill="#F1B6BF"/>
<path d="M123.618 161.794L123.618 123.618" stroke="#E19EAC" stroke-width="1.81791"/>
<circle cx="123.618" cy="161.795" r="5.45374" transform="rotate(180 123.618 161.795)" fill="#F1B6BF"/>
<path d="M109.011 158.888L123.62 123.618" stroke="#E19EAC" stroke-width="1.81791"/>
<circle cx="109.012" cy="158.889" r="5.45374" transform="rotate(-157.5 109.012 158.889)" fill="#F1B6BF"/>
</svg>
