<svg width="186" height="182" viewBox="0 0 186 182" fill="none" xmlns="http://www.w3.org/2000/svg">
<path d="M142.538 126.764C135.61 111.585 117.688 104.897 102.509 111.825C87.3304 118.754 80.6419 136.675 87.5703 151.854C94.4986 167.033 112.922 165.976 121.921 154.353C136.767 155.092 149.466 141.943 142.538 126.764Z" fill="#E19EAC"/>
<path d="M91.5138 87.217C89.2286 88.2601 85.4249 132.854 85.4249 132.854L129.464 112.752C129.464 112.752 93.7991 86.1739 91.5138 87.217Z" fill="#E19EAC"/>
<path d="M73.857 148.814C86.152 137.534 86.9751 118.423 75.6953 106.128C64.4156 93.8331 45.3044 93.0101 33.0094 104.29C20.7144 115.57 27.4132 132.765 41.2479 137.731C45.132 152.079 61.562 160.094 73.857 148.814Z" fill="#E19EAC"/>
<path d="M95.7014 88.0664C94.0032 86.2154 50.4168 96.3781 50.4168 96.3781L83.143 132.05C83.143 132.05 97.3996 89.9175 95.7014 88.0664Z" fill="#E19EAC"/>
<path d="M31.6632 90.3097C46.1902 98.5173 64.6204 93.3944 72.828 78.8673C81.0356 64.3403 75.9127 45.9101 61.3856 37.7025C46.8586 29.4949 32.5748 41.1795 32.1269 55.8717C19.6814 63.9995 17.1361 82.102 31.6632 90.3097Z" fill="#E19EAC"/>
<path d="M96.1875 92.3128C97.4232 90.1257 74.289 51.813 74.289 51.813L50.476 93.9607C50.476 93.9607 94.9518 94.5 96.1875 92.3128Z" fill="#E19EAC"/>
<path d="M74.2665 32.1022C70.9497 48.4546 81.5171 64.3996 97.8695 67.7164C114.222 71.0332 130.167 60.4658 133.484 44.1134C136.8 27.7611 121.274 17.7871 107.162 21.9014C95.5864 12.5766 77.5833 15.7499 74.2665 32.1022Z" fill="#E19EAC"/>
<path d="M92.3003 94.0878C94.7622 94.5872 124.051 60.7459 124.051 60.7459L76.6075 51.1228C76.6075 51.1228 89.8383 93.5885 92.3003 94.0878Z" fill="#E19EAC"/>
<path d="M142.792 54.6323C126.215 56.531 114.316 71.5085 116.214 88.0854C118.113 104.662 133.091 116.561 149.668 114.663C166.245 112.764 170.932 94.9152 162.659 82.7658C167.95 68.875 159.369 52.7336 142.792 54.6323Z" fill="#E19EAC"/>
<path d="M89.4129 90.938C89.6988 93.4337 130.934 110.831 130.934 110.831L125.426 62.7363C125.426 62.7363 89.1271 88.4422 89.4129 90.938Z" fill="#E19EAC"/>
<path d="M93.5419 69.3616C94.8558 65.5144 100.576 66.6746 100.287 70.7298V70.7298C100.079 73.6478 103.354 75.4979 105.746 73.8139V73.8139C109.07 71.4738 113.016 75.7747 110.399 78.8856V78.8856C108.515 81.1242 110.077 84.5456 113.002 84.5893V84.5893C117.067 84.6501 117.731 90.4489 113.785 91.4272V91.4272C110.946 92.1313 110.198 95.8172 112.539 97.572V97.572C115.792 100.01 112.921 105.092 109.153 103.564V103.564C106.442 102.465 103.671 105.007 104.533 107.803V107.803C105.732 111.688 100.422 114.111 98.2721 110.661V110.661C96.7251 108.178 92.9885 108.606 92.043 111.374V111.374C90.7291 115.221 85.0089 114.061 85.2978 110.006V110.006C85.5057 107.088 82.2312 105.238 79.8389 106.922V106.922C76.5146 109.262 72.5688 104.961 75.1861 101.85V101.85C77.0695 99.6117 75.5078 96.1902 72.5827 96.1465V96.1465C68.5177 96.0857 67.8535 90.2869 71.7995 89.3086V89.3086C74.639 88.6046 75.3866 84.9186 73.0458 83.1639V83.1639C69.7929 80.7254 72.664 75.6437 76.4314 77.1715V77.1715C79.1424 78.271 81.9138 75.7285 81.0515 72.9329V72.9329C79.8532 69.0481 85.1629 66.6246 87.3127 70.0751V70.0751C88.8597 72.558 92.5963 72.1301 93.5419 69.3616V69.3616Z" fill="#F1B6BF" stroke="#E19EAC" stroke-width="1.81791"/>
</svg>
