<svg width="33" height="33" viewBox="0 0 33 33" fill="none" xmlns="http://www.w3.org/2000/svg">
<path fill-rule="evenodd" clip-rule="evenodd" d="M32.34 16.875C32.34 15.705 32.235 14.58 32.04 13.5H16.5V19.8825H25.38C24.9975 21.945 23.835 23.6925 22.0875 24.8625V29.0025H27.42C30.54 26.13 32.34 21.9 32.34 16.875Z" fill="#4285F4"/>
<path fill-rule="evenodd" clip-rule="evenodd" d="M16.4994 33.0003C20.9544 33.0003 24.6895 31.5228 27.4195 29.0028L22.0869 24.8628C20.6094 25.8528 18.7194 26.4378 16.4994 26.4378C12.2019 26.4378 8.56441 23.5353 7.26691 19.6353H1.75439V23.9103C4.4694 29.3028 10.0494 33.0003 16.4994 33.0003Z" fill="#34A853"/>
<path fill-rule="evenodd" clip-rule="evenodd" d="M7.26752 19.6349C6.93752 18.6449 6.75002 17.5874 6.75002 16.4999C6.75002 15.4124 6.93752 14.3549 7.26752 13.3649V9.08984H1.755C0.637501 11.3173 0 13.8374 0 16.4999C0 19.1624 0.637501 21.6824 1.755 23.9099L7.26752 19.6349Z" fill="#FBBC05"/>
<path fill-rule="evenodd" clip-rule="evenodd" d="M16.4994 6.56252C18.9219 6.56252 21.0969 7.39502 22.8069 9.03002L27.5395 4.29751C24.6819 1.635 20.9469 0 16.4994 0C10.0494 0 4.4694 3.69751 1.75439 9.09002L7.26691 13.365C8.56441 9.46502 12.2019 6.56252 16.4994 6.56252Z" fill="#EA4335"/>
</svg>
