<svg width="22" height="15" viewBox="0 0 22 15" fill="none" xmlns="http://www.w3.org/2000/svg">
<path d="M1 0.0625C0.482233 0.0625 0.0625 0.482233 0.0625 1C0.0625 1.51777 0.482233 1.9375 1 1.9375V0.0625ZM21 1.9375C21.5178 1.9375 21.9375 1.51777 21.9375 1C21.9375 0.482233 21.5178 0.0625 21 0.0625V1.9375ZM1 6.3125C0.482233 6.3125 0.0625 6.73223 0.0625 7.25C0.0625 7.76777 0.482233 8.1875 1 8.1875V6.3125ZM21 8.1875C21.5178 8.1875 21.9375 7.76777 21.9375 7.25C21.9375 6.73223 21.5178 6.3125 21 6.3125V8.1875ZM1 12.5625C0.482233 12.5625 0.0625 12.9822 0.0625 13.5C0.0625 14.0178 0.482233 14.4375 1 14.4375V12.5625ZM21 14.4375C21.5178 14.4375 21.9375 14.0178 21.9375 13.5C21.9375 12.9822 21.5178 12.5625 21 12.5625V14.4375ZM1 1.9375H21V0.0625H1V1.9375ZM1 8.1875H21V6.3125H1V8.1875ZM1 14.4375H21V12.5625H1V14.4375Z" fill="#54605F"/>
</svg>
