<svg width="19" height="18" viewBox="0 0 19 18" fill="none" xmlns="http://www.w3.org/2000/svg">
<path d="M12 0.25C11.5858 0.25 11.25 0.585787 11.25 1C11.25 1.41421 11.5858 1.75 12 1.75V0.25ZM18 3H18.75H18ZM18 15H17.25H18ZM16 17V17.75V17ZM12 16.25C11.5858 16.25 11.25 16.5858 11.25 17C11.25 17.4142 11.5858 17.75 12 17.75V16.25ZM1 9L0.46967 8.46967C0.176777 8.76256 0.176777 9.23744 0.46967 9.53033L1 9ZM13 9.75C13.4142 9.75 13.75 9.41422 13.75 9C13.75 8.58579 13.4142 8.25 13 8.25V9.75ZM5.53033 5.53033C5.82322 5.23744 5.82322 4.76256 5.53033 4.46967C5.23744 4.17678 4.76256 4.17678 4.46967 4.46967L5.53033 5.53033ZM4.46967 13.5303C4.76256 13.8232 5.23744 13.8232 5.53033 13.5303C5.82322 13.2374 5.82322 12.7626 5.53033 12.4697L4.46967 13.5303ZM12 1.75L16 1.75V0.25L12 0.25V1.75ZM17.25 3V15H18.75V3H17.25ZM16 16.25H12V17.75H16V16.25ZM17.25 15C17.25 15.6904 16.6904 16.25 16 16.25V17.75C17.5188 17.75 18.75 16.5188 18.75 15H17.25ZM16 1.75C16.6904 1.75 17.25 2.30964 17.25 3H18.75C18.75 1.48122 17.5188 0.25 16 0.25V1.75ZM1 9.75L13 9.75V8.25L1 8.25L1 9.75ZM4.46967 4.46967L0.46967 8.46967L1.53033 9.53033L5.53033 5.53033L4.46967 4.46967ZM0.46967 9.53033L4.46967 13.5303L5.53033 12.4697L1.53033 8.46967L0.46967 9.53033Z" fill="#54605F"/>
</svg>
