<svg width="32" height="32" viewBox="0 0 32 32" fill="none" xmlns="http://www.w3.org/2000/svg">
<path d="M12.6119 22.1875H19.8881V19.8125H12.6119V22.1875ZM19.8881 22.1875C22.4697 22.1875 24.5625 24.2803 24.5625 26.8619H26.9375C26.9375 22.9686 23.7814 19.8125 19.8881 19.8125V22.1875ZM12.6119 19.8125C8.71864 19.8125 5.5625 22.9686 5.5625 26.8619H7.9375C7.9375 24.2803 10.0303 22.1875 12.6119 22.1875V19.8125ZM19.8125 11.5C19.8125 13.4675 18.2175 15.0625 16.25 15.0625V17.4375C19.5292 17.4375 22.1875 14.7792 22.1875 11.5H19.8125ZM16.25 15.0625C14.2825 15.0625 12.6875 13.4675 12.6875 11.5H10.3125C10.3125 14.7792 12.9708 17.4375 16.25 17.4375V15.0625ZM12.6875 11.5C12.6875 9.53249 14.2825 7.9375 16.25 7.9375V5.5625C12.9708 5.5625 10.3125 8.22081 10.3125 11.5H12.6875ZM16.25 7.9375C18.2175 7.9375 19.8125 9.53249 19.8125 11.5H22.1875C22.1875 8.22081 19.5292 5.5625 16.25 5.5625V7.9375ZM29.3125 16.25C29.3125 23.4642 23.4642 29.3125 16.25 29.3125V31.6875C24.7759 31.6875 31.6875 24.7759 31.6875 16.25H29.3125ZM16.25 29.3125C9.03578 29.3125 3.1875 23.4642 3.1875 16.25H0.8125C0.8125 24.7759 7.7241 31.6875 16.25 31.6875V29.3125ZM3.1875 16.25C3.1875 9.03578 9.03578 3.1875 16.25 3.1875V0.8125C7.7241 0.8125 0.8125 7.7241 0.8125 16.25H3.1875ZM16.25 3.1875C23.4642 3.1875 29.3125 9.03578 29.3125 16.25H31.6875C31.6875 7.7241 24.7759 0.8125 16.25 0.8125V3.1875Z" fill="#54605F"/>
</svg>
